<svg width="20" height="20" viewBox="0 0 20 20" fill="none" xmlns="http://www.w3.org/2000/svg">
<path fill-rule="evenodd" clip-rule="evenodd" d="M8.96447 2.29796C9.90215 1.36028 11.1739 0.833496 12.5 0.833496H15C15.4602 0.833496 15.8333 1.20659 15.8333 1.66683V5.00016C15.8333 5.4604 15.4602 5.8335 15 5.8335H12.5V7.50016H15C15.2566 7.50016 15.4989 7.61839 15.6568 7.82065C15.8148 8.02292 15.8707 8.28666 15.8085 8.53561L14.9751 11.8689C14.8824 12.2399 14.5491 12.5002 14.1667 12.5002H12.5V18.3335C12.5 18.7937 12.1269 19.1668 11.6667 19.1668H8.33333C7.8731 19.1668 7.5 18.7937 7.5 18.3335V12.5002H5.83333C5.3731 12.5002 5 12.1271 5 11.6668V8.3335C5 7.87326 5.3731 7.50016 5.83333 7.50016H7.5V5.8335C7.5 4.50741 8.02678 3.23564 8.96447 2.29796ZM12.5 2.50016C11.6159 2.50016 10.7681 2.85135 10.143 3.47647C9.51786 4.10159 9.16667 4.94944 9.16667 5.8335V8.3335C9.16667 8.79373 8.79357 9.16683 8.33333 9.16683H6.66667V10.8335H8.33333C8.79357 10.8335 9.16667 11.2066 9.16667 11.6668V17.5002H10.8333V11.6668C10.8333 11.2066 11.2064 10.8335 11.6667 10.8335H13.516L13.9327 9.16683H11.6667C11.2064 9.16683 10.8333 8.79373 10.8333 8.3335V5.8335C10.8333 5.39147 11.0089 4.96755 11.3215 4.65499C11.634 4.34243 12.058 4.16683 12.5 4.16683H14.1667V2.50016H12.5Z" fill="#FE3044"/>
</svg>
