<svg width="22" height="19" viewBox="0 0 22 19" fill="none" xmlns="http://www.w3.org/2000/svg">
<path d="M20.0223 1.645C19.5011 1.12349 18.8821 0.709786 18.2009 0.427531C17.5197 0.145277 16.7896 0 16.0523 0C15.3149 0 14.5848 0.145277 13.9036 0.427531C13.2224 0.709786 12.6035 1.12349 12.0822 1.645L11.0004 2.72682L9.91856 1.645C8.86564 0.592074 7.43756 0.000545768 5.9485 0.000545779C4.45944 0.00054579 3.03136 0.592074 1.97844 1.645C0.925512 2.69793 0.333984 4.126 0.333984 5.61506C0.333984 7.10412 0.925512 8.5322 1.97844 9.58512L3.06025 10.6669L11.0004 18.6071L18.9405 10.6669L20.0223 9.58512C20.5438 9.06385 20.9575 8.44494 21.2398 7.76375C21.522 7.08255 21.6673 6.35242 21.6673 5.61506C21.6673 4.8777 21.522 4.14757 21.2398 3.46637C20.9575 2.78518 20.5438 2.16627 20.0223 1.645Z" fill="#FE3044"/>
</svg>
