<svg width="20" height="20" viewBox="0 0 20 20" fill="none" xmlns="http://www.w3.org/2000/svg">
<g clip-path="url(#clip0_129_97)">
<path fill-rule="evenodd" clip-rule="evenodd" d="M5.83398 2.50016C3.99304 2.50016 2.50065 3.99255 2.50065 5.8335V14.1668C2.50065 16.0078 3.99304 17.5002 5.83398 17.5002H14.1673C16.0083 17.5002 17.5007 16.0078 17.5007 14.1668V5.8335C17.5007 3.99255 16.0083 2.50016 14.1673 2.50016H5.83398ZM0.833984 5.8335C0.833984 3.07207 3.07256 0.833496 5.83398 0.833496H14.1673C16.9287 0.833496 19.1673 3.07207 19.1673 5.8335V14.1668C19.1673 16.9283 16.9287 19.1668 14.1673 19.1668H5.83398C3.07256 19.1668 0.833984 16.9283 0.833984 14.1668V5.8335Z" fill="#FE3044"/>
<path fill-rule="evenodd" clip-rule="evenodd" d="M10.4025 7.49108C9.88237 7.41394 9.35114 7.50279 8.88439 7.74498C8.41764 7.98716 8.03914 8.37036 7.80272 8.84006C7.56631 9.30976 7.48402 9.84205 7.56756 10.3612C7.6511 10.8804 7.89622 11.36 8.26804 11.7318C8.63987 12.1036 9.11947 12.3487 9.63864 12.4323C10.1578 12.5158 10.6901 12.4335 11.1598 12.1971C11.6295 11.9607 12.0127 11.5822 12.2549 11.1155C12.4971 10.6487 12.5859 10.1175 12.5088 9.59733C12.4301 9.06675 12.1829 8.57554 11.8036 8.19627C11.4243 7.81699 10.9331 7.56975 10.4025 7.49108ZM8.11677 6.2656C8.89468 5.86196 9.78007 5.71388 10.647 5.84244C11.5313 5.97357 12.35 6.38563 12.9821 7.01776C13.6142 7.64988 14.0263 8.46856 14.1574 9.35285C14.286 10.2198 14.1379 11.1052 13.7342 11.8831C13.3306 12.661 12.6919 13.2918 11.9091 13.6858C11.1263 14.0799 10.2391 14.217 9.37385 14.0778C8.50858 13.9385 7.70924 13.53 7.08953 12.9103C6.46982 12.2906 6.0613 11.4913 5.92206 10.626C5.78283 9.76072 5.91998 8.87358 6.314 8.09074C6.70802 7.30791 7.33885 6.66925 8.11677 6.2656Z" fill="#FE3044"/>
<path fill-rule="evenodd" clip-rule="evenodd" d="M13.75 5.41683C13.75 4.95659 14.1231 4.5835 14.5833 4.5835H14.5917C15.0519 4.5835 15.425 4.95659 15.425 5.41683C15.425 5.87707 15.0519 6.25016 14.5917 6.25016H14.5833C14.1231 6.25016 13.75 5.87707 13.75 5.41683Z" fill="#FE3044"/>
</g>
<defs>
<clipPath id="clip0_129_97">
<rect width="20" height="20" fill="white"/>
</clipPath>
</defs>
</svg>
