<svg width="20" height="20" viewBox="0 0 20 20" fill="none" xmlns="http://www.w3.org/2000/svg">
<path fill-rule="evenodd" clip-rule="evenodd" d="M13.0556 7.50016C11.9735 7.50016 10.9358 7.93915 10.1707 8.72055C9.40554 9.50195 8.97569 10.5618 8.97569 11.6668V16.6668H10.6076V11.6668C10.6076 11.0038 10.8655 10.3679 11.3246 9.89906C11.7837 9.43022 12.4063 9.16683 13.0556 9.16683C13.7048 9.16683 14.3274 9.43022 14.7865 9.89906C15.2456 10.3679 15.5035 11.0038 15.5035 11.6668V16.6668H17.1354V11.6668C17.1354 10.5618 16.7056 9.50195 15.9405 8.72055C15.1753 7.93915 14.1376 7.50016 13.0556 7.50016ZM13.0556 5.8335C11.5407 5.8335 10.0879 6.44808 9.0167 7.54204C7.94553 8.636 7.34375 10.1197 7.34375 11.6668V17.5002C7.34375 17.9604 7.70907 18.3335 8.15972 18.3335H11.4236C11.8743 18.3335 12.2396 17.9604 12.2396 17.5002V11.6668C12.2396 11.4458 12.3256 11.2339 12.4786 11.0776C12.6316 10.9213 12.8391 10.8335 13.0556 10.8335C13.272 10.8335 13.4795 10.9213 13.6325 11.0776C13.7856 11.2339 13.8715 11.4458 13.8715 11.6668V17.5002C13.8715 17.9604 14.2369 18.3335 14.6875 18.3335H17.9514C18.402 18.3335 18.7674 17.9604 18.7674 17.5002V11.6668C18.7674 10.1197 18.1656 8.636 17.0944 7.54204C16.0232 6.44808 14.5704 5.8335 13.0556 5.8335Z" fill="#FE3044"/>
<path fill-rule="evenodd" clip-rule="evenodd" d="M0.816406 7.49984C0.816406 7.0396 1.18173 6.6665 1.63238 6.6665H4.89627C5.34692 6.6665 5.71224 7.0396 5.71224 7.49984V17.4998C5.71224 17.9601 5.34692 18.3332 4.89627 18.3332H1.63238C1.18173 18.3332 0.816406 17.9601 0.816406 17.4998V7.49984ZM2.44835 8.33317V16.6665H4.0803V8.33317H2.44835Z" fill="#FE3044"/>
<path fill-rule="evenodd" clip-rule="evenodd" d="M3.26432 2.50016C2.81367 2.50016 2.44835 2.87326 2.44835 3.3335C2.44835 3.79373 2.81367 4.16683 3.26432 4.16683C3.71497 4.16683 4.0803 3.79373 4.0803 3.3335C4.0803 2.87326 3.71497 2.50016 3.26432 2.50016ZM0.816406 3.3335C0.816406 1.95278 1.91238 0.833496 3.26432 0.833496C4.61627 0.833496 5.71224 1.95278 5.71224 3.3335C5.71224 4.71421 4.61627 5.8335 3.26432 5.8335C1.91238 5.8335 0.816406 4.71421 0.816406 3.3335Z" fill="#FE3044"/>
</svg>
